<svg width="75" height="75" viewBox="0 0 75 75" fill="none" xmlns="http://www.w3.org/2000/svg">
<circle cx="37.5" cy="37.5" r="36.7188" fill="#EDF4FD" stroke="#E6E8EE" stroke-width="1.5625"/>
<path d="M21.3597 29.392H24.4808L29.9074 42.6422H30.1071L35.5337 29.392H38.6548V46.4375H36.2079V34.1028H36.0497L31.0226 46.4125H28.9918L23.9648 34.0945H23.8066V46.4375H21.3597V29.392ZM42.3939 46.4375V29.392H48.4697C49.7958 29.392 50.8944 29.6334 51.7656 30.1161C52.6367 30.5989 53.2887 31.2592 53.7215 32.097C54.1543 32.9293 54.3707 33.867 54.3707 34.9102C54.3707 35.9589 54.1515 36.9021 53.7132 37.74C53.2804 38.5723 52.6256 39.2326 51.7489 39.7209C50.8778 40.2036 49.7819 40.445 48.4614 40.445H44.2832V38.2643H48.2283C49.0662 38.2643 49.7459 38.1201 50.2674 37.8315C50.789 37.5375 51.1719 37.138 51.416 36.633C51.6602 36.1281 51.7822 35.5538 51.7822 34.9102C51.7822 34.2665 51.6602 33.695 51.416 33.1956C51.1719 32.6963 50.7862 32.3051 50.2591 32.0221C49.7375 31.7391 49.0495 31.5976 48.195 31.5976H44.9657V46.4375H42.3939Z" fill="#8492A8"/>
</svg>
