<svg width="37" height="37" viewBox="0 0 37 37" fill="none" xmlns="http://www.w3.org/2000/svg">
<path d="M30.7934 36.217H4.53981C2.97481 36.217 1.7 34.9408 1.7 33.3589V14.9751C1.7 13.3932 2.97481 12.117 4.53981 12.117H30.7934C32.3584 12.117 33.6332 13.3932 33.6332 14.9751V33.3589C33.6332 34.9408 32.3584 36.217 30.7934 36.217Z" fill="#EAF5FF" stroke="#4979D2" stroke-width="1.4"/>
<path d="M35.5238 26.967H27.8542C26.4977 26.967 25.3094 25.7643 25.3094 24.167C25.3094 22.5697 26.4977 21.367 27.8542 21.367H35.5238C35.9028 21.367 36.2987 21.715 36.2987 22.2579V26.0761C36.2987 26.619 35.9028 26.967 35.5238 26.967Z" fill="#A9D6FF" stroke="#4979D2" stroke-width="1.4"/>
<path d="M27.8781 23.4443C27.6841 23.4443 27.4939 23.5216 27.3567 23.6561C27.2195 23.7906 27.1406 23.9762 27.1406 24.167C27.1406 24.357 27.2195 24.5435 27.3567 24.6778C27.4939 24.8122 27.6841 24.8896 27.8781 24.8896C28.0728 24.8896 28.2623 24.8123 28.3994 24.6778C28.5373 24.5435 28.6155 24.357 28.6155 24.167C28.6155 23.9769 28.5373 23.7905 28.3994 23.6561C28.2623 23.5217 28.0728 23.4443 27.8781 23.4443Z" fill="#4979D2"/>
<path d="M27.354 4.22945L27.354 4.22946C27.6528 4.55681 27.4206 5.08333 26.9773 5.08333H26.4167V9.99C26.4167 10.2717 26.1883 10.5 25.9067 10.5H21.5933C21.3117 10.5 21.0833 10.2717 21.0833 9.99V5.08333H20.5227C20.0794 5.08333 19.8472 4.55681 20.146 4.22946L20.5149 4.56623L20.146 4.22945L23.3734 0.694762C23.5756 0.473265 23.9244 0.473265 24.1266 0.694762L27.354 4.22945Z" fill="#A9D6FF" stroke="#4979D2"/>
<path d="M12.854 4.22945L12.854 4.22946C13.1528 4.55681 12.9206 5.08333 12.4773 5.08333H11.9167V9.99C11.9167 10.2717 11.6883 10.5 11.4067 10.5H7.09333C6.81169 10.5 6.58333 10.2717 6.58333 9.99V5.08333H6.02267C5.5794 5.08333 5.34716 4.55681 5.64604 4.22946L6.0149 4.56623L5.64604 4.22945L8.87337 0.694762C9.07561 0.473265 9.42439 0.473265 9.62663 0.694762L12.854 4.22945Z" fill="#5EADF5" stroke="#4979D2"/>
</svg>
